<svg width="29" height="28" viewBox="0 0 29 28" fill="none" xmlns="http://www.w3.org/2000/svg">
<g opacity="0.5">
<path d="M10.8748 25.6667H18.1248C24.1665 25.6667 26.5832 23.3333 26.5832 17.5V15.1667C26.5832 9.33333 24.1665 7 18.1248 7H10.8748C4.83317 7 2.4165 9.33333 2.4165 15.1667V17.5C2.4165 23.3333 4.83317 25.6667 10.8748 25.6667Z" fill="#707070"/>
<path d="M11.5626 14.5371L7.8772 18.0954" stroke="#2B2A2A" stroke-width="1.5" stroke-miterlimit="10" stroke-linecap="round" stroke-linejoin="round"/>
<path d="M7.91357 14.5723L11.599 18.1306" stroke="#2B2A2A" stroke-width="1.5" stroke-miterlimit="10" stroke-linecap="round" stroke-linejoin="round"/>
<path d="M16.3489 16.334H16.3626" stroke="#2B2A2A" stroke-width="2" stroke-miterlimit="10" stroke-linecap="round" stroke-linejoin="round"/>
<path d="M21.1108 16.334H21.1245" stroke="#2B2A2A" stroke-width="2" stroke-miterlimit="10" stroke-linecap="round" stroke-linejoin="round"/>
<path d="M18.7278 18.6451V18.6211" stroke="#2B2A2A" stroke-width="2" stroke-miterlimit="10" stroke-linecap="round" stroke-linejoin="round"/>
<path d="M18.7278 14.0472V14.0232" stroke="#2B2A2A" stroke-width="2" stroke-miterlimit="10" stroke-linecap="round" stroke-linejoin="round"/>
<path d="M15.7203 2.33325L15.7082 3.51159C15.6961 4.15325 15.1644 4.66659 14.4998 4.66659H14.4636C13.799 4.66659 13.2673 5.19159 13.2673 5.83325C13.2673 6.47492 13.8111 6.99992 14.4757 6.99992H15.684" stroke="#2C2C2C" stroke-width="1.5" stroke-linecap="round" stroke-linejoin="round"/>
</g>
</svg>
