<svg width="37" height="29" viewBox="0 0 37 29" fill="none" xmlns="http://www.w3.org/2000/svg">
<g opacity="0.5">
<path d="M19.3169 24.674H9.57355C4.70188 24.674 3.08313 22.1365 3.08313 19.5869V9.41277C3.08313 5.59443 4.70188 4.32568 9.57355 4.32568H19.3169C24.1885 4.32568 25.8073 5.59443 25.8073 9.41277V19.5869C25.8073 23.4053 24.1731 24.674 19.3169 24.674Z" fill="#707070"/>
<path d="M30.0926 20.6627L25.8068 18.3064V10.6818L30.0926 8.32558C32.1893 7.17766 33.9159 7.87849 33.9159 9.89641V19.1039C33.9159 21.1218 32.1893 21.8227 30.0926 20.6627Z" fill="#707070"/>
<path d="M17.6396 13.647C18.8276 13.647 19.7907 12.6923 19.7907 11.5147C19.7907 10.337 18.8276 9.38232 17.6396 9.38232C16.4515 9.38232 15.4884 10.337 15.4884 11.5147C15.4884 12.6923 16.4515 13.647 17.6396 13.647Z" stroke="#2B2A2A" stroke-width="1.5" stroke-linecap="round" stroke-linejoin="round"/>
</g>
</svg>
